<svg version="1.1" id="Layer_1" xmlns="http://www.w3.org/2000/svg" xmlns:xlink="http://www.w3.org/1999/xlink" x="0px" y="0px"
	 width="100%" viewBox="0 0 2000 2000" enable-background="new 0 0 2000 2000" xml:space="preserve">
<path fill="#FFFFFF" opacity="1.000000" stroke="none" 
	d="
M1256.000000,2001.000000 
	C837.333313,2001.000000 419.166656,2001.000000 1.000000,2001.000000 
	C1.000000,1334.333374 1.000000,667.666687 1.000000,1.000000 
	C667.666687,1.000000 1334.333374,1.000000 2001.000000,1.000000 
	C2001.000000,667.666687 2001.000000,1334.333374 2001.000000,2001.000000 
	C1752.833374,2001.000000 1504.666626,2001.000000 1256.000000,2001.000000 
M1324.950684,1489.926514 
	C1365.779663,1489.933594 1406.608887,1489.897583 1447.437500,1490.025269 
	C1450.918945,1490.036133 1453.249878,1488.945923 1455.639038,1486.480469 
	C1483.937012,1457.280884 1512.338379,1428.181396 1540.726318,1399.069214 
	C1667.890625,1268.660034 1795.044434,1138.240479 1922.274658,1007.895569 
	C1928.181152,1001.844421 1934.783447,996.472534 1942.462891,989.514648 
	C1936.614014,984.448059 1932.032959,981.026672 1928.088623,976.984253 
	C1772.250732,817.275757 1616.477173,657.504700 1460.596313,497.838257 
	C1458.989624,496.192535 1456.075073,494.998016 1453.764771,494.987732 
	C1414.936157,494.814758 1376.106567,494.864044 1337.277100,494.863953 
	C1336.021973,494.863953 1334.766968,494.863922 1332.296021,494.863922 
	C1492.764038,659.459167 1652.383667,823.184265 1812.061768,986.969421 
	C1810.655762,988.459656 1809.646851,989.560547 1808.604736,990.629089 
	C1670.726440,1132.005005 1532.837891,1273.370972 1394.973145,1414.759888 
	C1371.249023,1439.090576 1347.625122,1463.518921 1323.395996,1488.109009 
	C1323.030884,1488.566895 1322.665649,1489.024658 1322.047241,1489.800049 
	C1322.923828,1489.800049 1323.474121,1489.800049 1324.950684,1489.926514 
M1156.531860,1489.944702 
	C1156.829102,1489.707764 1157.126343,1489.470703 1157.423584,1489.233765 
	C1156.956055,1488.806763 1156.488525,1488.379639 1155.736328,1487.352051 
	C993.131470,1320.605835 830.526550,1153.859619 667.826599,987.016052 
	C827.752502,822.970703 987.278870,659.335083 1147.452393,495.035706 
	C1145.465942,494.947571 1144.524902,494.869415 1143.583862,494.869293 
	C1104.255005,494.863281 1064.925903,494.810303 1025.598022,495.004272 
	C1023.339294,495.015411 1020.558044,496.527344 1018.912964,498.212494 
	C876.779480,643.814758 734.733215,789.502197 592.684021,935.186768 
	C575.124695,953.195496 557.583435,971.221741 539.898071,989.379272 
	C541.193970,990.758179 542.299683,991.973267 543.445862,993.148804 
	C661.059204,1113.781738 778.677673,1234.409668 896.290466,1355.043091 
	C939.101013,1398.953003 981.884644,1442.889282 1024.760498,1486.735229 
	C1026.230713,1488.238647 1028.563721,1489.807495 1030.499146,1489.813354 
	C1072.324341,1489.940552 1114.150146,1489.849365 1156.531860,1489.944702 
M472.539948,458.072357 
	C481.861267,423.202942 491.182587,388.333557 500.549957,353.291992 
	C468.963257,353.291992 438.191925,353.291992 407.403137,353.291992 
	C291.916962,784.573120 176.502716,1215.585693 60.980701,1647.000610 
	C63.437534,1647.000610 65.260788,1647.000610 67.084045,1647.000610 
	C94.080589,1647.000610 121.078186,1646.879883 148.072632,1647.117920 
	C152.640289,1647.158203 154.609314,1646.051880 155.834579,1641.419678 
	C172.438736,1578.645020 189.310684,1515.941040 206.027878,1453.196167 
	C215.474075,1417.741333 224.670197,1382.219727 234.144608,1346.772461 
	C240.955017,1321.292236 248.166885,1295.919312 254.972168,1270.437744 
	C265.822174,1229.811401 276.420807,1189.117920 287.249786,1148.485962 
	C292.714630,1127.980957 298.542603,1107.572876 304.049530,1087.078979 
	C325.344482,1007.829834 346.590240,928.567505 367.826050,849.302490 
	C379.261322,806.619080 390.631348,763.918213 402.046082,721.229187 
	C408.521576,697.012085 415.039948,672.806396 421.518066,648.589966 
	C438.437286,585.342224 455.344971,522.091431 472.539948,458.072357 
z"/>
<path fill="#0176C0" opacity="1.000000" stroke="none" 
	d="
M1155.975830,1489.800293 
	C1114.150146,1489.849365 1072.324341,1489.940552 1030.499146,1489.813354 
	C1028.563721,1489.807495 1026.230713,1488.238647 1024.760498,1486.735229 
	C981.884644,1442.889282 939.101013,1398.953003 896.290466,1355.043091 
	C778.677673,1234.409668 661.059204,1113.781738 543.445862,993.148804 
	C542.299683,991.973267 541.193970,990.758179 539.898071,989.379272 
	C557.583435,971.221741 575.124695,953.195496 592.684021,935.186768 
	C734.733215,789.502197 876.779480,643.814758 1018.912964,498.212494 
	C1020.558044,496.527344 1023.339294,495.015411 1025.598022,495.004272 
	C1064.925903,494.810303 1104.255005,494.863281 1143.583862,494.869293 
	C1144.524902,494.869415 1145.465942,494.947571 1147.452393,495.035706 
	C987.278870,659.335083 827.752502,822.970703 667.826599,987.016052 
	C830.526550,1153.859619 993.131470,1320.605835 1155.864014,1487.960205 
	C1155.986572,1488.978882 1155.981201,1489.389648 1155.975830,1489.800293 
z"/>
<path fill="#0176C0" opacity="1.000000" stroke="none" 
	d="
M1323.954834,1487.901978 
	C1347.625122,1463.518921 1371.249023,1439.090576 1394.973145,1414.759888 
	C1532.837891,1273.370972 1670.726440,1132.005005 1808.604736,990.629089 
	C1809.646851,989.560547 1810.655762,988.459656 1812.061768,986.969421 
	C1652.383667,823.184265 1492.764038,659.459167 1332.296021,494.863922 
	C1334.766968,494.863922 1336.021973,494.863953 1337.277100,494.863953 
	C1376.106567,494.864044 1414.936157,494.814758 1453.764771,494.987732 
	C1456.075073,494.998016 1458.989624,496.192535 1460.596313,497.838257 
	C1616.477173,657.504700 1772.250732,817.275757 1928.088623,976.984253 
	C1932.032959,981.026672 1936.614014,984.448059 1942.462891,989.514648 
	C1934.783447,996.472534 1928.181152,1001.844421 1922.274658,1007.895569 
	C1795.044434,1138.240479 1667.890625,1268.660034 1540.726318,1399.069214 
	C1512.338379,1428.181396 1483.937012,1457.280884 1455.639038,1486.480469 
	C1453.249878,1488.945923 1450.918945,1490.036133 1447.437500,1490.025269 
	C1406.608887,1489.897583 1365.779663,1489.933594 1324.482422,1489.546631 
	C1323.994263,1488.745239 1323.974487,1488.323608 1323.954834,1487.901978 
z"/>
<path fill="#0176C0" opacity="1.000000" stroke="none" 
	d="
M472.398621,458.457123 
	C455.344971,522.091431 438.437286,585.342224 421.518066,648.589966 
	C415.039948,672.806396 408.521576,697.012085 402.046082,721.229187 
	C390.631348,763.918213 379.261322,806.619080 367.826050,849.302490 
	C346.590240,928.567505 325.344482,1007.829834 304.049530,1087.078979 
	C298.542603,1107.572876 292.714630,1127.980957 287.249786,1148.485962 
	C276.420807,1189.117920 265.822174,1229.811401 254.972168,1270.437744 
	C248.166885,1295.919312 240.955017,1321.292236 234.144608,1346.772461 
	C224.670197,1382.219727 215.474075,1417.741333 206.027878,1453.196167 
	C189.310684,1515.941040 172.438736,1578.645020 155.834579,1641.419678 
	C154.609314,1646.051880 152.640289,1647.158203 148.072632,1647.117920 
	C121.078186,1646.879883 94.080589,1647.000610 67.084045,1647.000610 
	C65.260788,1647.000610 63.437534,1647.000610 60.980701,1647.000610 
	C176.502716,1215.585693 291.916962,784.573120 407.403137,353.291992 
	C438.191925,353.291992 468.963257,353.291992 500.549957,353.291992 
	C491.182587,388.333557 481.861267,423.202942 472.398621,458.457123 
z"/>
<path fill="#1A84C6" opacity="1.000000" stroke="none" 
	d="
M1156.253906,1489.872559 
	C1155.981201,1489.389648 1155.986572,1488.978882 1156.006348,1488.260498 
	C1156.488525,1488.379639 1156.956055,1488.806763 1157.423584,1489.233765 
	C1157.126343,1489.470703 1156.829102,1489.707764 1156.253906,1489.872559 
z"/>
<path fill="#1A84C6" opacity="1.000000" stroke="none" 
	d="
M1323.675415,1488.005493 
	C1323.974487,1488.323608 1323.994263,1488.745239 1324.019165,1489.483398 
	C1323.474121,1489.800049 1322.923828,1489.800049 1322.047241,1489.800049 
	C1322.665649,1489.024658 1323.030884,1488.566895 1323.675415,1488.005493 
z"/>
</svg>